<?xml version="1.0" standalone="no"?>
<!DOCTYPE svg PUBLIC "-//W3C//DTD SVG 20010904//EN"
 "http://www.w3.org/TR/2001/REC-SVG-20010904/DTD/svg10.dtd">
<svg version="1.0" xmlns="http://www.w3.org/2000/svg"
 width="400.000000pt" height="400.000000pt" viewBox="0 0 400.000000 400.000000"
 preserveAspectRatio="xMidYMid meet">
<metadata>
Created by potrace 1.14, written by Peter Selinger 2001-2017
</metadata>
<g transform="translate(0.000000,400.000000) scale(0.100000,-0.100000)"
fill="#000000" stroke="none">
<path d="M560 3945 c-211 -194 -368 -402 -493 -655 l-62 -125 0 -815 0 -815
63 -128 c66 -132 187 -322 266 -417 25 -30 46 -57 46 -60 0 -3 -28 -21 -62
-40 -69 -40 -215 -146 -277 -202 l-41 -38 0 -325 0 -325 2000 0 2000 0 0 735
c0 647 -2 735 -15 735 -19 0 -19 17 0 50 12 21 14 129 15 667 0 353 -3 649 -6
657 -5 13 -9 14 -21 5 -11 -10 -15 -8 -19 7 -4 14 -21 24 -52 33 -47 13 -82
26 -114 42 -10 5 -25 9 -33 9 -8 0 -15 5 -15 10 0 6 -5 10 -11 10 -6 0 -31 14
-56 30 -24 17 -51 30 -60 30 -16 0 -85 47 -91 62 -2 4 -12 8 -22 8 -10 0 -25
11 -33 23 -8 13 -21 24 -29 24 -22 0 -108 63 -108 80 0 8 -14 20 -30 26 -18 7
-28 17 -25 25 2 7 -1 12 -8 11 -23 -3 -37 1 -37 10 0 5 -22 32 -50 61 -27 29
-50 61 -50 71 0 11 -6 19 -12 19 -20 0 -94 82 -101 112 -4 15 -14 33 -22 42
-8 8 -27 38 -41 65 -14 28 -29 51 -34 51 -9 0 -23 35 -24 60 -1 8 -7 14 -14
12 -11 -2 -13 7 -9 38 4 38 -5 54 -17 28 -3 -7 -3 1 0 17 4 23 3 27 -5 15 -9
-12 -11 -9 -9 15 1 17 -4 47 -11 68 l-13 37 -1099 0 -1099 0 -60 -55z m2107
-157 c-2 -13 -4 -5 -4 17 -1 22 1 32 4 23 2 -10 2 -28 0 -40z m86 -128 c3 -11
1 -23 -4 -26 -5 -3 -9 6 -9 20 0 31 6 34 13 6z m184 14 c-3 -3 -12 -4 -19 -1
-8 3 -5 6 6 6 11 1 17 -2 13 -5z m-805 -43 c85 -22 155 -55 243 -114 60 -40
185 -154 185 -167 0 -4 -18 -10 -41 -13 -22 -3 -49 -13 -60 -23 -22 -20 -35
-79 -21 -97 5 -7 6 -21 1 -32 -4 -11 -8 -33 -8 -48 -1 -18 -5 -26 -12 -21 -16
10 -1 -33 29 -81 24 -40 188 -206 171 -173 -5 9 -36 41 -70 70 -55 48 -99 103
-99 123 0 4 9 -4 21 -19 29 -36 74 -58 115 -54 34 3 35 2 70 -77 58 -129 84
-207 84 -252 0 -49 -10 -54 -34 -18 -27 40 -72 58 -135 53 -77 -7 -85 -3 -60
31 29 40 17 63 -30 55 -50 -9 -84 -28 -114 -63 -30 -36 -47 -25 -47 29 1 38
13 60 45 78 15 9 16 11 4 12 -8 0 -26 -12 -40 -26 -49 -52 -19 -144 47 -144
21 0 23 -3 14 -19 -20 -39 -136 -149 -178 -170 -66 -34 -148 -29 -204 11 -9 7
-20 9 -24 5 -11 -11 21 -51 64 -77 42 -26 66 -65 60 -97 -2 -10 -20 -27 -40
-38 -35 -19 -37 -19 -94 -1 -51 16 -71 31 -159 120 -56 55 -121 130 -144 165
-51 74 -120 218 -120 246 1 11 -2 56 -6 100 -10 105 3 146 65 218 27 32 50 68
51 80 4 76 -12 118 -67 180 -19 20 -34 41 -34 46 0 5 -3 16 -6 24 -14 37 153
149 271 182 76 20 219 18 307 -4z m818 4 c11 -13 10 -14 -4 -9 -9 3 -16 10
-16 15 0 13 6 11 20 -6z m-193 -47 c-3 -7 -5 -2 -5 12 0 14 2 19 5 13 2 -7 2
-19 0 -25z m60 -90 c-3 -8 -6 -5 -6 6 -1 11 2 17 5 13 3 -3 4 -12 1 -19z
m-297 -262 c0 -2 -8 -10 -17 -17 -16 -13 -17 -12 -4 4 13 16 21 21 21 13z m40
-27 c15 -28 5 -23 -15 7 -9 15 -12 23 -6 20 6 -4 16 -16 21 -27z m50 -49 c0
-5 -2 -10 -4 -10 -3 0 -8 5 -11 10 -3 6 -1 10 4 10 6 0 11 -4 11 -10z m-1477
-421 c-20 -12 -38 -37 -48 -63 -16 -40 -16 -48 -1 -107 16 -62 63 -149 80
-149 4 0 0 12 -10 28 -36 54 -56 105 -61 157 -6 61 5 74 43 49 22 -15 25 -22
20 -53 -21 -128 -22 -118 19 -156 43 -41 91 -68 105 -60 6 4 -13 19 -42 34
-29 16 -61 40 -72 55 -20 25 -20 26 2 98 12 40 23 82 24 93 2 11 12 21 22 23
16 3 17 -1 11 -40 -4 -23 -14 -55 -21 -70 -20 -38 -11 -35 30 9 44 48 58 36
17 -14 -53 -64 -33 -120 40 -110 21 3 40 3 42 0 3 -2 -2 -18 -11 -35 -12 -25
-13 -35 -3 -50 10 -17 9 -20 -9 -25 -19 -5 -21 -11 -16 -42 3 -20 15 -44 27
-53 15 -13 17 -18 7 -18 -29 0 -53 40 -52 86 0 24 -3 41 -8 38 -4 -3 -8 -12
-8 -20 0 -25 -20 -15 -75 37 -117 110 -160 284 -90 355 13 13 34 24 47 24 21
0 20 -2 -9 -21z m150 5 c29 -10 61 -32 86 -60 23 -24 42 -40 42 -36 1 4 2 14
3 22 0 8 11 16 23 18 27 4 43 -29 43 -89 0 -22 9 -113 19 -202 11 -89 27 -232
36 -317 25 -242 34 -264 153 -387 77 -78 106 -124 142 -226 17 -45 34 -90 40
-99 5 -10 10 -46 11 -80 l1 -63 13 40 c8 22 14 34 14 27 1 -8 8 -29 17 -48 19
-40 41 -43 105 -14 51 23 79 25 79 8 0 -7 -25 -24 -56 -37 -49 -21 -63 -23
-127 -16 -74 8 -102 9 -173 4 -73 -5 -246 98 -278 165 -10 21 -16 79 -19 186
-7 213 -20 285 -107 609 -11 41 -18 77 -15 79 3 3 15 6 28 8 12 1 25 3 29 3 4
1 10 11 14 24 4 12 17 32 30 44 13 12 24 28 24 35 0 7 -11 0 -25 -15 -15 -15
-36 -27 -50 -27 -32 0 -32 18 -1 30 36 13 44 37 47 129 2 73 0 85 -20 104
l-22 22 6 -26 c9 -37 -12 -47 -27 -12 -7 15 -15 30 -19 33 -3 3 -19 29 -35 59
-16 30 -43 63 -61 75 -18 12 -33 27 -33 34 0 16 7 15 63 -4z m62 -403 c-3 -10
-1 -31 5 -45 8 -21 15 -26 30 -21 15 5 18 3 14 -9 -10 -25 -32 -19 -49 14 -16
31 -19 62 -8 73 11 12 15 8 8 -12z"/>
<path d="M1930 3294 c-57 -20 -102 -54 -129 -97 -25 -40 -40 -127 -22 -127 6
0 11 5 11 10 0 23 84 99 133 120 44 19 63 22 130 17 98 -8 137 -26 57 -27 -69
0 -100 -8 -100 -26 0 -8 -23 -25 -50 -39 -32 -16 -61 -41 -78 -66 -15 -23 -37
-52 -49 -65 -12 -13 -20 -31 -17 -39 12 -29 115 -70 189 -73 82 -5 174 10 209
33 21 14 23 20 13 35 -10 16 -4 26 41 69 49 47 57 64 52 101 -3 24 -30 48 -62
55 l-30 7 21 19 c12 11 21 26 21 34 0 23 -35 53 -77 64 -57 16 -210 13 -263
-5z m137 -274 c40 -36 65 -38 86 -7 l16 22 0 -22 c1 -25 -17 -37 -72 -47 -38
-7 -147 9 -147 22 0 6 70 61 79 62 2 0 19 -13 38 -30z m53 20 c0 -5 -4 -10
-10 -10 -5 0 -10 5 -10 10 0 6 5 10 10 10 6 0 10 -4 10 -10z"/>
<path d="M2579 2764 c-10 -13 -10 -17 2 -24 17 -11 45 13 35 29 -10 15 -21 14
-37 -5z"/>
<path d="M2630 2766 c0 -8 -12 -24 -27 -35 -14 -12 -24 -24 -21 -26 8 -8 58
43 58 60 0 8 -2 15 -5 15 -3 0 -5 -6 -5 -14z"/>
<path d="M1536 1429 c21 -34 163 -65 179 -39 4 6 -16 10 -52 10 -41 0 -67 6
-88 20 -33 22 -50 26 -39 9z"/>
</g>
</svg>
